<svg viewBox="0 0 3544 1418" xmlns="http://www.w3.org/2000/svg" fill-rule="evenodd" clip-rule="evenodd" stroke-linecap="round" stroke-linejoin="round" stroke-miterlimit="1.5"><path fill="rgb(187,62,27)" transform="scale(3 1.2)" d="M0 0H1181.1V1181.1H0z"/><g transform="translate(242.104 118.11)"><path d="M590.552 943.517V726.005s-94.863-49.198-212.33 26.29c-118.338 76.048-96.818 138.5-154.633 156.669-57.815 18.17-88.067-35.084-88.067-35.084s4.895 91.305 73.565 123.635c68.67 32.328 112.742 18.238 112.742 18.238s-10.31 14.4-26.365 23.76c-16.054 9.36-31.11 9.36-31.11 9.36s37.004 26.24 108.28 7.17c71.276-19.07 76.46-41.08 76.46-41.08s-.634 13.4-3.137 22.47c-2.502 9.08-11.708 22.33-11.708 22.33s42.918.56 99.108-47.23c56.189-47.794 57.195-69.016 57.195-69.016z" fill="rgb(40,25,6)"/><path d="M590.553 943.517V726.005s94.863-49.198 212.33 26.29c118.338 76.048 96.818 138.5 154.633 156.669 57.815 18.17 88.067-35.084 88.067-35.084s-4.895 91.305-73.565 123.635c-68.67 32.328-112.742 18.238-112.742 18.238s10.31 14.4 26.365 23.76c16.054 9.36 31.11 9.36 31.11 9.36s-37.004 26.24-108.28 7.17c-71.276-19.07-76.46-41.08-76.46-41.08s.634 13.4 3.137 22.47c2.502 9.08 11.708 22.33 11.708 22.33s-42.918.56-99.108-47.23c-56.189-47.794-57.195-69.016-57.195-69.016z" fill="rgb(28,18,4)"/><path d="M590.551 340.47c-21.816 0-46.211 6.841-56.999 25.803-20.654 36.302-35.464 207.111-35.464 207.111s-56.451-.013-56.451 69.39 57.223 94.659 148.914 94.659" fill="rgb(250,220,181)"/><path d="M590.549 340.47c21.816 0 46.211 6.841 56.999 25.803 20.654 36.302 35.464 207.111 35.464 207.111s56.451-.013 56.451 69.39-57.223 94.659-148.914 94.659" fill="rgb(241,206,161)"/><g fill="rgb(28,18,4)"><path d="M165.355 212.899c-1.877-54.722 69.978-95.087 193.871-94.787 87.097.212 137.948 37.307 165.183 60.995 24.834 21.599 18.864 42.32 18.672 53.459-.799 46.36-41.543 31.832-52.669 26.738-36.936-16.908-48.776-43.638-129.504-44.364-84.475-.76-105.776 19.74-145.052 32.54-11.792 3.844-48.623 20.142-50.501-34.581z"/><path d="M1015.747 212.9c1.877-54.722-69.978-95.087-193.871-94.787-87.097.212-137.948 37.307-165.183 60.995-24.834 21.6-18.864 42.32-18.672 53.46.799 46.36 41.543 31.831 52.669 26.737 36.936-16.908 48.776-43.638 129.504-44.364 84.475-.759 105.776 19.74 145.052 32.54 11.792 3.844 48.623 20.142 50.501-34.58z"/></g><g fill="none" stroke="rgb(6,2,12)"><circle cx="386.334" cy="438.264" r="204.218" stroke-width="73.14px" transform="matrix(.79756 0 0 .79756 41.853 55.969)"/><path d="M130.083 394.708s12.239-1.521 35.236.309" stroke-width="58.33px" stroke-linejoin="miter" stroke-miterlimit="1" transform="matrix(1 0 0 1 0 -5)"/><circle cx="386.334" cy="438.264" r="204.218" stroke-width="73.14px" transform="matrix(-.79756 0 0 .79756 1136.004 55.969)"/><path d="M130.083 394.708s12.239-1.521 35.236.309" stroke-width="58.33px" stroke-linejoin="miter" stroke-miterlimit="1" transform="matrix(-1 0 0 1 1177.857 -5)"/><path d="M506.821 361.483s35.709-26.175 83.73-26.175 74.457 25.763 74.457 25.763" stroke-width="58.33px" stroke-linejoin="miter" stroke-miterlimit="1"/></g></g><text x="1810.5" y="589.159" font-family="'Vollkorn-BlackItalic', 'Vollkorn'" font-weight="900" font-style="italic" font-size="50px" fill="rgb(254,250,241)" transform="translate(-24028.2 -7354.85) scale(14.0981)">F<tspan x="1837.3" y="589.159">a</tspan>ux</text></svg>